HIERARCHY
ROOT Hips
{
	OFFSET 0.000000 0.000000 0.000000
	CHANNELS 6 Xposition Yposition Zposition Zrotation Yrotation Xrotation 
	JOINT LowerBack
	{
		OFFSET 0.000000 0.000000 0.000000
		CHANNELS 3 Zrotation Yrotation Xrotation
		JOINT Spine
		{
			OFFSET 0.028270 2.035590 -0.193380
			CHANNELS 3 Zrotation Yrotation Xrotation
			JOINT Spine1
			{
				OFFSET 0.056720 2.048850 -0.042750
				CHANNELS 3 Zrotation Yrotation Xrotation
				JOINT Neck
				{
					OFFSET 0.000000 0.000000 0.000000
					CHANNELS 3 Zrotation Yrotation Xrotation
					JOINT Neck1
					{
						OFFSET -0.054170 1.746240 0.172020
						CHANNELS 3 Zrotation Yrotation Xrotation
						JOINT Head
						{
							OFFSET 0.104070 1.761360 -0.123970
							CHANNELS 3 Zrotation Yrotation Xrotation
							End Site
							{
								OFFSET 0.000000 0.000000 0.000000
							}
						}
					}
				}
				JOINT LeftShoulder
				{
					OFFSET 0.000000 0.000000 0.000000
					CHANNELS 3 Zrotation Yrotation Xrotation
					JOINT LeftArm
					{
						OFFSET 3.362410 1.200890 -0.311210
						CHANNELS 3 Zrotation Yrotation Xrotation
						JOINT LeftForeArm
						{
							OFFSET 4.983000 -0.000000 -0.000000
							CHANNELS 3 Zrotation Yrotation Xrotation
							JOINT LeftHand
							{
								OFFSET 3.483560 -0.000000 -0.000000
								CHANNELS 3 Zrotation Yrotation Xrotation
								JOINT LeftFingerBase
								{
									OFFSET 0.000000 0.000000 0.000000
									CHANNELS 3 Zrotation Yrotation Xrotation
									JOINT LeftHandIndex1
									{
										OFFSET 0.715260 -0.000000 -0.000000
										CHANNELS 3 Zrotation Yrotation Xrotation
										End Site
										{
											OFFSET 0.000000 0.000000 0.000000
										}
									}
								}
								JOINT LThumb
								{
									OFFSET 0.000000 0.000000 0.000000
									CHANNELS 3 Zrotation Yrotation Xrotation
									End Site
									{
										OFFSET 0.000000 0.000000 0.000000
									}
								}
							}
						}
					}
				}
				JOINT RightShoulder
				{
					OFFSET 0.000000 0.000000 0.000000
					CHANNELS 3 Zrotation Yrotation Xrotation
					JOINT RightArm
					{
						OFFSET -3.136600 1.374050 -0.404650
						CHANNELS 3 Zrotation Yrotation Xrotation
						JOINT RightForeArm
						{
							OFFSET -5.241900 -0.000000 -0.000000
							CHANNELS 3 Zrotation Yrotation Xrotation
							JOINT RightHand
							{
								OFFSET -3.444170 -0.000000 -0.000000
								CHANNELS 3 Zrotation Yrotation Xrotation
								JOINT RightFingerBase
								{
									OFFSET 0.000000 0.000000 0.000000
									CHANNELS 3 Zrotation Yrotation Xrotation
									JOINT RightHandIndex1
									{
										OFFSET -0.622530 -0.000000 -0.000000
										CHANNELS 3 Zrotation Yrotation Xrotation
										End Site
										{
											OFFSET 0.000000 0.000000 0.000000
										}
									}
								}
								JOINT RThumb
								{
									OFFSET 0.000000 0.000000 0.000000
									CHANNELS 3 Zrotation Yrotation Xrotation
									End Site
									{
										OFFSET 0.000000 0.000000 0.000000
									}
								}
							}
						}
					}
				}
			}
		}
	}
}
}
MOTION
Frames: 14
Frame Time: 0.008333
1.664388 17.749842 -0.145328 9.228014 76.741386 9.295469 -2.370518 1.963813 -3.431609 -0.821519 2.029620 -2.700180 -3.909542 1.959282 3.586863 8.493588 -14.984760 -9.449964 -0.290443 0.002657 -0.460830 0.000000 0.000000 0.000000 -5.669775 32.957250 1.386299 -84.263249 37.115225 -7.657339 -4.353674 -19.052685 -0.039589 -6.927345 13.317409 -0.814542 -0.068598 -0.193738 -0.000000 0.000000 0.000000 0.000000 0.000000 0.000000 0.000000 4.939030 -9.417837 -0.826590 42.462283 14.987043 -0.479556 0.972214 51.408784 -0.000950 -0.695425 0.437721 -0.003546 0.040972 -0.178882 0.000000 0.000000 0.000000 0.000000 0.000000 0.000000 0.000000 
1.885316 17.752994 -0.132686 9.140291 76.471856 8.872600 -2.352066 1.879453 -3.124067 -0.798832 1.958429 -2.631705 -3.871666 1.893170 3.610189 8.443117 -15.040071 -9.471161 -0.247126 0.006912 -0.469602 0.000000 0.000000 0.000000 -5.549028 33.018716 1.483928 -84.959369 37.392386 -7.641729 -4.429697 -19.532068 -0.044724 -8.364258 14.542480 -1.077516 -0.060937 -0.200612 -0.000000 0.000000 0.000000 0.000000 0.000000 0.000000 0.000000 4.746455 -9.511818 -0.860112 42.512670 15.215612 -0.948321 0.952278 51.318959 -0.000989 -0.695103 0.489925 -0.003860 0.039294 -0.181778 0.000000 0.000000 0.000000 0.000000 0.000000 0.000000 0.000000 
2.105065 17.744606 -0.120206 8.999473 76.223983 8.446988 -2.319363 1.783678 -2.814827 -0.775831 1.874308 -2.565082 -3.849307 1.814456 3.629520 8.430251 -15.110727 -9.514764 -0.218713 0.010291 -0.484102 0.000000 0.000000 0.000000 -5.468573 33.028699 1.575935 -85.548402 37.531440 -7.408317 -4.498799 -20.067270 -0.049969 -9.863128 15.817095 -1.385989 -0.053094 -0.207484 -0.000000 0.000000 0.000000 0.000000 0.000000 0.000000 0.000000 4.652538 -9.607481 -0.883494 42.614658 15.357946 -1.468220 0.942629 51.260306 -0.001007 -0.694181 0.553631 -0.004270 0.038216 -0.184573 0.000000 0.000000 0.000000 0.000000 0.000000 0.000000 0.000000 
2.323821 17.724754 -0.107904 8.809126 75.974745 8.029156 -2.272332 1.683611 -2.513949 -0.753803 1.783921 -2.502797 -3.844631 1.729619 3.643742 8.454750 -15.193430 -9.575681 -0.206132 0.012634 -0.502889 0.000000 0.000000 0.000000 -5.437836 32.992577 1.656934 -86.014519 37.548379 -6.901543 -4.548487 -20.714149 -0.055073 -11.309699 17.163906 -1.729162 -0.045600 -0.214519 -0.000000 0.000000 0.000000 0.000000 0.000000 0.000000 0.000000 4.660879 -9.699835 -0.895327 42.762364 15.415957 -2.021663 0.944006 51.224421 -0.001007 -0.693282 0.618440 -0.004676 0.037813 -0.187064 0.000000 0.000000 0.000000 0.000000 0.000000 0.000000 0.000000 
2.541807 17.693668 -0.095475 8.628634 75.708697 7.687524 -2.226571 1.583753 -2.238225 -0.736443 1.692305 -2.447819 -3.857025 1.643391 3.653902 8.515912 -15.282051 -9.648294 -0.210782 0.013728 -0.524387 0.000000 0.000000 0.000000 -5.448907 32.914047 1.719963 -86.347928 37.427410 -6.232454 -4.584260 -21.364543 -0.059583 -12.690424 18.334748 -2.077528 -0.038600 -0.220200 -0.000000 0.000000 0.000000 0.000000 0.000000 0.000000 0.000000 4.774087 -9.786118 -0.895640 42.954076 15.390322 -2.589284 0.956693 51.198983 -0.001006 -0.697200 0.674488 -0.005078 0.038195 -0.189016 0.000000 0.000000 0.000000 0.000000 0.000000 0.000000 0.000000 
2.759203 17.651446 -0.082900 8.426798 75.409083 7.397813 -2.172805 1.489944 -1.998324 -0.722375 1.604252 -2.402800 -3.886412 1.560312 3.658649 8.606827 -15.368932 -9.725685 -0.232485 0.013454 -0.546588 0.000000 0.000000 0.000000 -5.501774 32.794275 1.760997 -86.548944 37.183081 -5.407019 -4.599086 -22.017038 -0.063134 -13.909125 19.275584 -2.398883 -0.032179 -0.224369 -0.000000 0.000000 0.000000 0.000000 0.000000 0.000000 0.000000 4.981224 -9.861114 -0.884537 43.194051 15.282217 -3.152695 0.980749 51.167604 -0.001021 -0.713485 0.714542 -0.005473 0.039509 -0.190263 0.000000 0.000000 0.000000 0.000000 0.000000 0.000000 0.000000 
2.975463 17.598220 -0.068767 8.419837 75.076284 7.363760 -2.171937 1.396094 -1.792355 -0.723981 1.517919 -2.367520 -3.933035 1.478378 3.656776 8.733124 -15.446038 -9.802920 -0.271735 0.011706 -0.568266 0.000000 0.000000 0.000000 -5.572622 32.627165 1.779164 -86.626244 36.822433 -4.445336 -4.589009 -22.663071 -0.065480 -14.873144 19.955821 -2.659925 -0.026456 -0.227099 -0.000000 0.000000 0.000000 0.000000 0.000000 0.000000 0.000000 5.289631 -9.922612 -0.863344 43.495695 15.100353 -3.695269 1.016262 51.113268 -0.001091 -0.752113 0.736092 -0.005963 0.041881 -0.190713 0.000000 0.000000 0.000000 0.000000 0.000000 0.000000 0.000000 
3.190548 17.534039 -0.052973 8.544113 74.704123 7.522846 -2.209499 1.304299 -1.623520 -0.737956 1.434244 -2.343052 -3.995220 1.398364 3.647119 8.884189 -15.504447 -9.874740 -0.327187 0.008492 -0.587910 0.000000 0.000000 0.000000 -5.657678 32.412539 1.774622 -86.590945 36.354452 -3.360522 -4.549737 -23.290557 -0.066373 -15.506576 20.366388 -2.833451 -0.021331 -0.228440 -0.000000 0.000000 0.000000 0.000000 0.000000 0.000000 0.000000 5.678945 -9.965359 -0.833777 43.869877 14.847467 -4.200401 1.062635 51.018659 -0.001240 -0.821697 0.740975 -0.006548 0.045395 -0.190331 0.000000 0.000000 0.000000 0.000000 0.000000 0.000000 0.000000 
3.403930 17.459020 -0.034731 8.866119 74.298682 7.929576 -2.309366 1.208580 -1.484580 -0.768250 1.349123 -2.328026 -4.070994 1.316094 3.628880 9.056621 -15.535358 -9.938194 -0.397733 0.003866 -0.604832 0.000000 0.000000 0.000000 -5.739317 32.145922 1.750418 -86.458746 35.780788 -2.168770 -4.480200 -23.883544 -0.065716 -15.755213 20.516262 -2.901661 -0.016851 -0.228481 -0.000000 0.000000 0.000000 0.000000 0.000000 0.000000 0.000000 6.138728 -9.985714 -0.798358 44.332011 14.529926 -4.654737 1.119240 50.868031 -0.001480 -0.929532 0.736346 -0.007428 0.050058 -0.189161 0.000000 0.000000 0.000000 0.000000 0.000000 0.000000 0.000000 
3.615142 17.373406 -0.013702 9.359445 73.868554 8.548807 -2.469158 1.103652 -1.368498 -0.812889 1.257403 -2.320529 -4.156619 1.226369 3.603841 9.241984 -15.530811 -9.993259 -0.481513 -0.002014 -0.619136 0.000000 0.000000 0.000000 -5.806487 31.828367 1.713478 -86.248913 35.080549 -0.921014 -4.385829 -24.405244 -0.063722 -15.633446 20.478451 -2.873954 -0.013288 -0.227273 -0.000000 0.000000 0.000000 0.000000 0.000000 0.000000 0.000000 6.649667 -9.977746 -0.760574 44.895327 14.153345 -5.047754 1.185034 50.646768 -0.001822 -1.080591 0.734693 -0.008603 0.055797 -0.187317 0.000000 0.000000 0.000000 0.000000 0.000000 0.000000 0.000000 
3.823661 17.277563 0.010162 9.985827 73.427219 9.332331 -2.681429 0.984143 -1.264104 -0.868800 1.153690 -2.318067 -4.248092 1.123813 3.571551 9.430443 -15.484683 -10.039403 -0.576395 -0.008964 -0.630831 0.000000 0.000000 0.000000 -5.847153 31.455313 1.668455 -85.980335 34.249419 0.368700 -4.271163 -24.816164 -0.060421 -15.157892 20.203093 -2.747732 -0.010649 -0.224457 -0.000000 0.000000 0.000000 0.000000 0.000000 0.000000 0.000000 7.189582 -9.939776 -0.722940 45.573518 13.720647 -5.373863 1.259030 50.341783 -0.002250 -1.277205 0.751949 -0.010474 0.062479 -0.184963 0.000000 0.000000 0.000000 0.000000 0.000000 0.000000 0.000000 
4.028980 17.172174 0.036961 10.717902 72.990619 10.242316 -2.940439 0.841539 -1.161299 -0.932829 1.029521 -2.317131 -4.340661 0.999978 3.537788 9.615646 -15.394786 -10.082397 -0.679895 -0.016669 -0.641696 0.000000 0.000000 0.000000 -5.856288 31.035792 1.628580 -85.672732 33.236667 1.630305 -4.147294 -25.097426 -0.056574 -14.425766 19.952864 -2.580499 -0.009661 -0.220626 -0.000000 0.000000 0.000000 0.000000 0.000000 0.000000 0.000000 7.741519 -9.866574 -0.689584 46.375342 13.241398 -5.627818 1.339987 49.939024 -0.002743 -1.522630 0.806326 -0.013142 0.069949 -0.182291 0.000000 0.000000 0.000000 0.000000 0.000000 0.000000 0.000000 
4.230858 17.058367 0.066150 11.478894 72.574382 11.198626 -3.217927 0.677154 -1.050928 -0.998729 0.884748 -2.317129 -4.431951 0.854825 3.493177 9.784310 -15.263657 -10.116323 -0.789733 -0.025024 -0.650157 0.000000 0.000000 0.000000 -5.820482 30.545992 1.585584 -85.334047 32.111709 2.979501 -4.009813 -25.229873 -0.051475 -13.403227 19.269306 -2.312245 -0.009243 -0.214298 -0.000000 0.000000 0.000000 0.000000 0.000000 0.000000 0.000000 8.279083 -9.773085 -0.658488 47.313912 12.712067 -5.812778 1.427669 49.423894 -0.003259 -1.817495 0.916236 -0.017507 0.078078 -0.179489 0.000000 0.000000 0.000000 0.000000 0.000000 0.000000 0.000000 
4.428960 16.937706 0.097335 12.232298 72.188994 12.155834 -3.497213 0.487212 -0.922965 -1.061893 0.714935 -2.314808 -4.518454 0.684098 3.443061 9.930604 -15.093905 -10.148408 -0.903267 -0.033678 -0.658364 0.000000 0.000000 0.000000 -5.745237 29.998864 1.550705 -84.969169 30.822746 4.365598 -3.870087 -25.211270 -0.045995 -12.220027 18.427603 -2.012681 -0.009998 -0.206176 -0.000000 0.000000 0.000000 0.000000 0.000000 0.000000 0.000000 8.786274 -9.655690 -0.631869 48.396239 12.137405 -5.944079 1.521284 48.782134 -0.003750 -2.161498 1.096795 -0.024371 0.086664 -0.176744 0.000000 0.000000 0.000000 0.000000 0.000000 0.000000 0.000000 
